<svg height="512pt" viewBox="0 0 512.00189 512" width="512pt" xmlns="http://www.w3.org/2000/svg"><path d="m344.410156 479.425781c-6.304687 0-12.167968-4.003906-14.246094-10.320312l-7.644531-23.265625c-19.214843-58.46875-68.652343-102.21875-129.019531-114.183594-70.113281-13.894531-127.976562-64.558594-151.007812-132.222656l-9.242188-27.144532c-2.667969-7.839843 1.523438-16.363281 9.367188-19.03125 7.839843-2.667968 16.363281 1.523438 19.03125 9.363282l9.242187 27.148437c19.59375 57.546875 68.808594 100.640625 128.441406 112.460938 70.972657 14.066406 129.097657 65.503906 151.6875 134.242187l7.644531 23.265625c2.585938 7.871094-1.699218 16.347657-9.566406 18.933594-1.554687.511719-3.136718.753906-4.6875.753906zm0 0" fill="#994c10"/><path d="m309.425781 232.585938c-1.535156 0-3.089843-.238282-4.625-.734376-7.882812-2.554687-12.203125-11.011718-9.648437-18.890624 2.054687-6.34375 3.753906-12.886719 5.054687-19.445313 6.84375-34.519531 22.324219-66.335937 44.777344-92.007813 22.46875-25.691406 51.945313-45.265624 85.242187-56.601562l27.148438-9.238281c7.839844-2.671875 16.359375 1.523437 19.03125 9.363281 2.667969 7.839844-1.523438 16.363281-9.367188 19.03125l-27.144531 9.242188c-58.117187 19.785156-98.308593 65.726562-110.261719 126.042968-1.527343 7.710938-3.527343 15.398438-5.941406 22.855469-2.054687 6.34375-7.941406 10.382813-14.265625 10.382813zm0 0" fill="#713708"/><path d="m374.894531 355.226562c-4.917969 0-9.734375-2.414062-12.605469-6.847656-4.5-6.953125-2.515624-16.242187 4.4375-20.742187 15.847657-10.265625 30.871094-22.457031 44.652344-36.238281 37.296875-37.296876 61.667969-82.25 68.617188-126.570313 6.636718-42.347656-3.445313-79.410156-28.394532-104.359375-24.964843-24.964844-62.066406-35.082031-104.472656-28.488281-44.398437 6.902343-89.378906 31.234375-126.65625 68.515625-13.78125 13.777344-25.972656 28.800781-36.234375 44.648437-4.503906 6.953125-13.789062 8.941407-20.742187 4.4375-6.953125-4.503906-8.941406-13.789062-4.4375-20.742187 11.40625-17.613282 24.933594-34.289063 40.203125-49.554688 41.742187-41.746094 92.617187-69.070312 143.257812-76.945312 52.105469-8.105469 98.382813 5.007812 130.292969 36.921875 31.90625 31.902343 44.980469 78.148437 36.820312 130.210937-7.925781 50.550782-35.285156 101.382813-77.042968 143.140625-15.269532 15.269531-31.941406 28.792969-49.554688 40.199219-2.523437 1.632812-5.347656 2.414062-8.140625 2.414062zm0 0" fill="#994c0f"/><path d="m256.179688 511.871094c-10.589844 0-21.523438-.90625-32.6875-2.742188-52.269532-8.613281-103.492188-35.789062-144.226563-76.523437s-67.910156-91.953125-76.519531-144.226563c-8.761719-53.15625 3.667968-101.097656 34.097656-131.527344 31.847656-31.847656 78.570312-44.527343 131.554688-35.695312 51.136718 8.523438 102.347656 36.265625 144.199218 78.117188 41.851563 41.855468 69.59375 93.066406 78.117188 144.199218 8.832031 52.988282-3.84375 99.707032-35.695313 131.554688-24.039062 24.039062-59.007812 36.84375-98.839843 36.84375zm-119.734376-363.441406c-31.683593 0-58.921874 10.164062-78.390624 29.632812-23.507813 23.507812-32.878907 61.9375-25.710938 105.441406 7.488281 45.464844 32.324219 92.078125 68.132812 127.886719 35.8125 35.8125 82.425782 60.648437 127.890626 68.136719 9.578124 1.578125 18.914062 2.355468 27.894531 2.355468 31.8125 0 59.214843-9.734374 77.546875-28.066406 24.808594-24.808594 34.507812-62.246094 27.316406-105.414062-7.503906-45.019532-32.273438-90.449219-69.742188-127.917969s-82.898437-62.234375-127.917968-69.738281c-9.292969-1.550782-18.324219-2.316406-27.019532-2.316406zm0 0" fill="#bf6015"/></svg>